Wavefont-Hairline.ufo
<glyph name="_1" format="2">
  <advance width="1"/>
  <unicode hex="101"/>
  <unicode hex="2E"/><unicode hex="2D"/><unicode hex="2013"/><unicode hex="2014"/><unicode hex="2015"/><unicode hex="2A"/><unicode hex="5F"/><unicode hex="2581"/><unicode hex="61"/>
  <outline>
    <component base="cap" xOffset="0" yOffset="0" />
    <component base="cap" xOffset="0" yOffset="10" />
    <contour>
      <point x="0" y="0" type="line"/>
      <point x="0" y="10" type="line"/>
      <point x="1" y="10" type="line"/>
      <point x="1" y="0" type="line"/>
    </contour>
  </outline>
</glyph>
<glyph name="_3" format="2">
  <advance width="1"/>
  <unicode hex="103"/>
  
  <outline>
    <component base="cap" xOffset="0" yOffset="0" />
    <component base="cap" xOffset="0" yOffset="30" />
    <contour>
      <point x="0" y="0" type="line"/>
      <point x="0" y="30" type="line"/>
      <point x="1" y="30" type="line"/>
      <point x="1" y="0" type="line"/>
    </contour>
  </outline>
</glyph>
<glyph name="_7" format="2">
  <advance width="1"/>
  <unicode hex="107"/>
  
  <outline>
    <component base="cap" xOffset="0" yOffset="0" />
    <component base="cap" xOffset="0" yOffset="70" />
    <contour>
      <point x="0" y="0" type="line"/>
      <point x="0" y="70" type="line"/>
      <point x="1" y="70" type="line"/>
      <point x="1" y="0" type="line"/>
    </contour>
  </outline>
</glyph>
<glyph name="_8" format="2">
	<unicode hex="0108"/>
	<unicode hex="0065"/>
	<advance width="1"/>
	<outline>
		<component base="cap"/>
		<component base="cap" yOffset="80"/>
		<contour>
			<point x="0" y="0" type="line"/>
			<point x="0" y="80" type="line"/>
			<point x="1" y="80" type="line"/>
			<point x="1" y="0" type="line"/>
		</contour>
	</outline>
</glyph>
<glyph name="_11" format="2">
  <advance width="1"/>
  <unicode hex="10B"/>
  
  <outline>
    <component base="cap" xOffset="0" yOffset="0" />
    <component base="cap" xOffset="0" yOffset="110" />
    <contour>
      <point x="0" y="0" type="line"/>
      <point x="0" y="110" type="line"/>
      <point x="1" y="110" type="line"/>
      <point x="1" y="0" type="line"/>
    </contour>
  </outline>
</glyph>
<glyph name="_13" format="2">
  <advance width="1"/>
  <unicode hex="10D"/>
  
  <outline>
    <component base="cap" xOffset="0" yOffset="0" />
    <component base="cap" xOffset="0" yOffset="130" />
    <contour>
      <point x="0" y="0" type="line"/>
      <point x="0" y="130" type="line"/>
      <point x="1" y="130" type="line"/>
      <point x="1" y="0" type="line"/>
    </contour>
  </outline>
</glyph>
<glyph name="_18" format="2">
  <advance width="1"/>
  <unicode hex="112"/>
  <unicode hex="6A"/>
  <outline>
    <component base="cap" xOffset="0" yOffset="0" />
    <component base="cap" xOffset="0" yOffset="180" />
    <contour>
      <point x="0" y="0" type="line"/>
      <point x="0" y="180" type="line"/>
      <point x="1" y="180" type="line"/>
      <point x="1" y="0" type="line"/>
    </contour>
  </outline>
</glyph>
<glyph name="_21" format="2">
  <advance width="1"/>
  <unicode hex="115"/>
  
  <outline>
    <component base="cap" xOffset="0" yOffset="0" />
    <component base="cap" xOffset="0" yOffset="210" />
    <contour>
      <point x="0" y="0" type="line"/>
      <point x="0" y="210" type="line"/>
      <point x="1" y="210" type="line"/>
      <point x="1" y="0" type="line"/>
    </contour>
  </outline>
</glyph>
<glyph name="_26" format="2">
  <advance width="1"/>
  <unicode hex="11A"/>
  <unicode hex="6E"/>
  <outline>
    <component base="cap" xOffset="0" yOffset="0" />
    <component base="cap" xOffset="0" yOffset="260" />
    <contour>
      <point x="0" y="0" type="line"/>
      <point x="0" y="260" type="line"/>
      <point x="1" y="260" type="line"/>
      <point x="1" y="0" type="line"/>
    </contour>
  </outline>
</glyph>
<glyph name="_40" format="2">
  <advance width="1"/>
  <unicode hex="128"/>
  <unicode hex="34"/><unicode hex="75"/>
  <outline>
    <component base="cap" xOffset="0" yOffset="0" />
    <component base="cap" xOffset="0" yOffset="400" />
    <contour>
      <point x="0" y="0" type="line"/>
      <point x="0" y="400" type="line"/>
      <point x="1" y="400" type="line"/>
      <point x="1" y="0" type="line"/>
    </contour>
  </outline>
</glyph>
<glyph name="_44" format="2">
  <advance width="1"/>
  <unicode hex="12C"/>
  <unicode hex="77"/>
  <outline>
    <component base="cap" xOffset="0" yOffset="0" />
    <component base="cap" xOffset="0" yOffset="440" />
    <contour>
      <point x="0" y="0" type="line"/>
      <point x="0" y="440" type="line"/>
      <point x="1" y="440" type="line"/>
      <point x="1" y="0" type="line"/>
    </contour>
  </outline>
</glyph>
<glyph name="_51" format="2">
  <advance width="1"/>
  <unicode hex="133"/>
  
  <outline>
    <component base="cap" xOffset="0" yOffset="0" />
    <component base="cap" xOffset="0" yOffset="510" />
    <contour>
      <point x="0" y="0" type="line"/>
      <point x="0" y="510" type="line"/>
      <point x="1" y="510" type="line"/>
      <point x="1" y="0" type="line"/>
    </contour>
  </outline>
</glyph>
<glyph name="_59" format="2">
  <advance width="1"/>
  <unicode hex="13B"/>
  
  <outline>
    <component base="cap" xOffset="0" yOffset="0" />
    <component base="cap" xOffset="0" yOffset="590" />
    <contour>
      <point x="0" y="0" type="line"/>
      <point x="0" y="590" type="line"/>
      <point x="1" y="590" type="line"/>
      <point x="1" y="0" type="line"/>
    </contour>
  </outline>
</glyph>
<glyph name="_63" format="2">
  <advance width="1"/>
  <unicode hex="13F"/>
  
  <outline>
    <component base="cap" xOffset="0" yOffset="0" />
    <component base="cap" xOffset="0" yOffset="630" />
    <contour>
      <point x="0" y="0" type="line"/>
      <point x="0" y="630" type="line"/>
      <point x="1" y="630" type="line"/>
      <point x="1" y="0" type="line"/>
    </contour>
  </outline>
</glyph>
<glyph name="_64" format="2">
  <advance width="1"/>
  <unicode hex="140"/>
  <unicode hex="47"/>
  <outline>
    <component base="cap" xOffset="0" yOffset="0" />
    <component base="cap" xOffset="0" yOffset="640" />
    <contour>
      <point x="0" y="0" type="line"/>
      <point x="0" y="640" type="line"/>
      <point x="1" y="640" type="line"/>
      <point x="1" y="0" type="line"/>
    </contour>
  </outline>
</glyph>
<glyph name="_76" format="2">
  <advance width="1"/>
  <unicode hex="14C"/>
  <unicode hex="4D"/>
  <outline>
    <component base="cap" xOffset="0" yOffset="0" />
    <component base="cap" xOffset="0" yOffset="760" />
    <contour>
      <point x="0" y="0" type="line"/>
      <point x="0" y="760" type="line"/>
      <point x="1" y="760" type="line"/>
      <point x="1" y="0" type="line"/>
    </contour>
  </outline>
</glyph>
<glyph name="_77" format="2">
  <advance width="1"/>
  <unicode hex="14D"/>
  
  <outline>
    <component base="cap" xOffset="0" yOffset="0" />
    <component base="cap" xOffset="0" yOffset="770" />
    <contour>
      <point x="0" y="0" type="line"/>
      <point x="0" y="770" type="line"/>
      <point x="1" y="770" type="line"/>
      <point x="1" y="0" type="line"/>
    </contour>
  </outline>
</glyph>
<glyph name="_84" format="2">
  <advance width="1"/>
  <unicode hex="154"/>
  <unicode hex="51"/>
  <outline>
    <component base="cap" xOffset="0" yOffset="0" />
    <component base="cap" xOffset="0" yOffset="840" />
    <contour>
      <point x="0" y="0" type="line"/>
      <point x="0" y="840" type="line"/>
      <point x="1" y="840" type="line"/>
      <point x="1" y="0" type="line"/>
    </contour>
  </outline>
</glyph>
<glyph name="_85" format="2">
  <advance width="1"/>
  <unicode hex="155"/>
  
  <outline>
    <component base="cap" xOffset="0" yOffset="0" />
    <component base="cap" xOffset="0" yOffset="850" />
    <contour>
      <point x="0" y="0" type="line"/>
      <point x="0" y="850" type="line"/>
      <point x="1" y="850" type="line"/>
      <point x="1" y="0" type="line"/>
    </contour>
  </outline>
</glyph>
<glyph name="_87" format="2">
	<unicode hex="0157"/>
	<advance width="1"/>
	<outline>
		<component base="cap"/>
		<component base="cap" yOffset="870"/>
		<contour>
			<point x="0" y="0" type="line"/>
			<point x="0" y="870" type="line"/>
			<point x="1" y="870" type="line"/>
			<point x="1" y="0" type="line"/>
		</contour>
	</outline>
</glyph>
<glyph name="_88" format="2">
  <advance width="1"/>
  <unicode hex="158"/>
  <unicode hex="53"/>
  <outline>
    <component base="cap" xOffset="0" yOffset="0" />
    <component base="cap" xOffset="0" yOffset="880" />
    <contour>
      <point x="0" y="0" type="line"/>
      <point x="0" y="880" type="line"/>
      <point x="1" y="880" type="line"/>
      <point x="1" y="0" type="line"/>
    </contour>
  </outline>
</glyph>
<glyph name="_89" format="2">
  <advance width="1"/>
  <unicode hex="159"/>
  
  <outline>
    <component base="cap" xOffset="0" yOffset="0" />
    <component base="cap" xOffset="0" yOffset="890" />
    <contour>
      <point x="0" y="0" type="line"/>
      <point x="0" y="890" type="line"/>
      <point x="1" y="890" type="line"/>
      <point x="1" y="0" type="line"/>
    </contour>
  </outline>
</glyph>
<glyph name="_92" format="2">
  <advance width="1"/>
  <unicode hex="15C"/>
  <unicode hex="55"/>
  <outline>
    <component base="cap" xOffset="0" yOffset="0" />
    <component base="cap" xOffset="0" yOffset="920" />
    <contour>
      <point x="0" y="0" type="line"/>
      <point x="0" y="920" type="line"/>
      <point x="1" y="920" type="line"/>
      <point x="1" y="0" type="line"/>
    </contour>
  </outline>
</glyph>
<glyph name="_96" format="2">
  <advance width="1"/>
  <unicode hex="160"/>
  <unicode hex="57"/>
  <outline>
    <component base="cap" xOffset="0" yOffset="0" />
    <component base="cap" xOffset="0" yOffset="960" />
    <contour>
      <point x="0" y="0" type="line"/>
      <point x="0" y="960" type="line"/>
      <point x="1" y="960" type="line"/>
      <point x="1" y="0" type="line"/>
    </contour>
  </outline>
</glyph>
<glyph name="_6.center" format="2">
	<unicode hex="0406"/>
	<advance width="1"/>
	<outline>
		<component base="cap" yOffset="470"/>
		<component base="cap" yOffset="530"/>
		<contour>
			<point x="0" y="470" type="line"/>
			<point x="0" y="530" type="line"/>
			<point x="1" y="530" type="line"/>
			<point x="1" y="470" type="line"/>
		</contour>
	</outline>
</glyph>
<glyph name="_9.center" format="2">
  <advance width="1"/>
  <unicode hex="409"/>
  
  <outline>
    <component base="cap" xOffset="0" yOffset="455" />
    <component base="cap" xOffset="0" yOffset="545" />
    <contour>
      <point x="0" y="455" type="line"/>
      <point x="0" y="545" type="line"/>
      <point x="1" y="545" type="line"/>
      <point x="1" y="455" type="line"/>
    </contour>
  </outline>
</glyph>
<glyph name="_21.center" format="2">
  <advance width="1"/>
  <unicode hex="415"/>
  
  <outline>
    <component base="cap" xOffset="0" yOffset="395" />
    <component base="cap" xOffset="0" yOffset="605" />
    <contour>
      <point x="0" y="395" type="line"/>
      <point x="0" y="605" type="line"/>
      <point x="1" y="605" type="line"/>
      <point x="1" y="395" type="line"/>
    </contour>
  </outline>
</glyph>
<glyph name="_22.center" format="2">
	<unicode hex="0416"/>
	<advance width="1"/>
	<outline>
		<component base="cap" yOffset="390"/>
		<component base="cap" yOffset="610"/>
		<contour>
			<point x="0" y="390" type="line"/>
			<point x="0" y="610" type="line"/>
			<point x="1" y="610" type="line"/>
			<point x="1" y="390" type="line"/>
		</contour>
	</outline>
</glyph>
<glyph name="_28.center" format="2">
	<unicode hex="041C"/>
	<advance width="1"/>
	<outline>
		<component base="cap" yOffset="360"/>
		<component base="cap" yOffset="640"/>
		<contour>
			<point x="0" y="360" type="line"/>
			<point x="0" y="640" type="line"/>
			<point x="1" y="640" type="line"/>
			<point x="1" y="360" type="line"/>
		</contour>
	</outline>
</glyph>
<glyph name="_32.center" format="2">
  <advance width="1"/>
  <unicode hex="420"/>
  
  <outline>
    <component base="cap" xOffset="0" yOffset="340" />
    <component base="cap" xOffset="0" yOffset="660" />
    <contour>
      <point x="0" y="340" type="line"/>
      <point x="0" y="660" type="line"/>
      <point x="1" y="660" type="line"/>
      <point x="1" y="340" type="line"/>
    </contour>
  </outline>
</glyph>
<glyph name="_37.center" format="2">
	<unicode hex="0425"/>
	<advance width="1"/>
	<outline>
		<component base="cap" yOffset="315"/>
		<component base="cap" yOffset="685"/>
		<contour>
			<point x="0" y="315" type="line"/>
			<point x="0" y="685" type="line"/>
			<point x="1" y="685" type="line"/>
			<point x="1" y="315" type="line"/>
		</contour>
	</outline>
</glyph>
<glyph name="_39.center" format="2">
  <advance width="1"/>
  <unicode hex="427"/>
  
  <outline>
    <component base="cap" xOffset="0" yOffset="305" />
    <component base="cap" xOffset="0" yOffset="695" />
    <contour>
      <point x="0" y="305" type="line"/>
      <point x="0" y="695" type="line"/>
      <point x="1" y="695" type="line"/>
      <point x="1" y="305" type="line"/>
    </contour>
  </outline>
</glyph>
<glyph name="_45.center" format="2">
	<unicode hex="042D"/>
	<advance width="1"/>
	<outline>
		<component base="cap" yOffset="275"/>
		<component base="cap" yOffset="725"/>
		<contour>
			<point x="0" y="275" type="line"/>
			<point x="0" y="725" type="line"/>
			<point x="1" y="725" type="line"/>
			<point x="1" y="275" type="line"/>
		</contour>
	</outline>
</glyph>
<glyph name="_47.center" format="2">
  <advance width="1"/>
  <unicode hex="42F"/>
  
  <outline>
    <component base="cap" xOffset="0" yOffset="265" />
    <component base="cap" xOffset="0" yOffset="735" />
    <contour>
      <point x="0" y="265" type="line"/>
      <point x="0" y="735" type="line"/>
      <point x="1" y="735" type="line"/>
      <point x="1" y="265" type="line"/>
    </contour>
  </outline>
</glyph>
<glyph name="_48.center" format="2">
	<unicode hex="0430"/>
	<advance width="1"/>
	<outline>
		<component base="cap" yOffset="260"/>
		<component base="cap" yOffset="740"/>
		<contour>
			<point x="0" y="260" type="line"/>
			<point x="0" y="740" type="line"/>
			<point x="1" y="740" type="line"/>
			<point x="1" y="260" type="line"/>
		</contour>
	</outline>
</glyph>
<glyph name="_49.center" format="2">
	<unicode hex="0431"/>
	<advance width="1"/>
	<outline>
		<component base="cap" yOffset="255"/>
		<component base="cap" yOffset="745"/>
		<contour>
			<point x="0" y="255" type="line"/>
			<point x="0" y="745" type="line"/>
			<point x="1" y="745" type="line"/>
			<point x="1" y="255" type="line"/>
		</contour>
	</outline>
</glyph>
<glyph name="_53.center" format="2">
  <advance width="1"/>
  <unicode hex="435"/>
  
  <outline>
    <component base="cap" xOffset="0" yOffset="235" />
    <component base="cap" xOffset="0" yOffset="765" />
    <contour>
      <point x="0" y="235" type="line"/>
      <point x="0" y="765" type="line"/>
      <point x="1" y="765" type="line"/>
      <point x="1" y="235" type="line"/>
    </contour>
  </outline>
</glyph>
<glyph name="_54.center" format="2">
	<unicode hex="0436"/>
	<advance width="1"/>
	<outline>
		<component base="cap" yOffset="230"/>
		<component base="cap" yOffset="770"/>
		<contour>
			<point x="0" y="230" type="line"/>
			<point x="0" y="770" type="line"/>
			<point x="1" y="770" type="line"/>
			<point x="1" y="230" type="line"/>
		</contour>
	</outline>
</glyph>
<glyph name="_57.center" format="2">
	<unicode hex="0439"/>
	<advance width="1"/>
	<outline>
		<component base="cap" yOffset="215"/>
		<component base="cap" yOffset="785"/>
		<contour>
			<point x="0" y="215" type="line"/>
			<point x="0" y="785" type="line"/>
			<point x="1" y="785" type="line"/>
			<point x="1" y="215" type="line"/>
		</contour>
	</outline>
</glyph>
<glyph name="_65.center" format="2">
  <advance width="1"/>
  <unicode hex="441"/>
  
  <outline>
    <component base="cap" xOffset="0" yOffset="175" />
    <component base="cap" xOffset="0" yOffset="825" />
    <contour>
      <point x="0" y="175" type="line"/>
      <point x="0" y="825" type="line"/>
      <point x="1" y="825" type="line"/>
      <point x="1" y="175" type="line"/>
    </contour>
  </outline>
</glyph>
<glyph name="_70.center" format="2">
	<unicode hex="0446"/>
	<advance width="1"/>
	<outline>
		<component base="cap" yOffset="150"/>
		<component base="cap" yOffset="850"/>
		<contour>
			<point x="0" y="150" type="line"/>
			<point x="0" y="850" type="line"/>
			<point x="1" y="850" type="line"/>
			<point x="1" y="150" type="line"/>
		</contour>
	</outline>
</glyph>
<glyph name="_72.center" format="2">
  <advance width="1"/>
  <unicode hex="448"/>
  
  <outline>
    <component base="cap" xOffset="0" yOffset="140" />
    <component base="cap" xOffset="0" yOffset="860" />
    <contour>
      <point x="0" y="140" type="line"/>
      <point x="0" y="860" type="line"/>
      <point x="1" y="860" type="line"/>
      <point x="1" y="140" type="line"/>
    </contour>
  </outline>
</glyph>
<glyph name="_74.center" format="2">
  <advance width="1"/>
  <unicode hex="44A"/>
  
  <outline>
    <component base="cap" xOffset="0" yOffset="130" />
    <component base="cap" xOffset="0" yOffset="870" />
    <contour>
      <point x="0" y="130" type="line"/>
      <point x="0" y="870" type="line"/>
      <point x="1" y="870" type="line"/>
      <point x="1" y="130" type="line"/>
    </contour>
  </outline>
</glyph>
<glyph name="_78.center" format="2">
  <advance width="1"/>
  <unicode hex="44E"/>
  
  <outline>
    <component base="cap" xOffset="0" yOffset="110" />
    <component base="cap" xOffset="0" yOffset="890" />
    <contour>
      <point x="0" y="110" type="line"/>
      <point x="0" y="890" type="line"/>
      <point x="1" y="890" type="line"/>
      <point x="1" y="110" type="line"/>
    </contour>
  </outline>
</glyph>
<glyph name="_97.center" format="2">
	<unicode hex="0461"/>
	<advance width="1"/>
	<outline>
		<component base="cap" yOffset="15"/>
		<component base="cap" yOffset="985"/>
		<contour>
			<point x="0" y="15" type="line"/>
			<point x="0" y="985" type="line"/>
			<point x="1" y="985" type="line"/>
			<point x="1" y="15" type="line"/>
		</contour>
	</outline>
</glyph>
<glyph name="_107.center" format="2">
  <advance width="1"/>
  <unicode hex="46B"/>
  
  <outline>
    <component base="cap" xOffset="0" yOffset="-35" />
    <component base="cap" xOffset="0" yOffset="1035" />
    <contour>
      <point x="0" y="-35" type="line"/>
      <point x="0" y="1035" type="line"/>
      <point x="1" y="1035" type="line"/>
      <point x="1" y="-35" type="line"/>
    </contour>
  </outline>
</glyph>
<glyph name="_12.clip.center" format="2">
	<advance width="1"/>
	<outline>
		<contour>
			<point x="0" y="560"/>
			<point x="0" y="560"/>
			<point x="0" y="560" type="curve" smooth="yes"/>
			<point x="1" y="560" type="line"/>
			<point x="1" y="560"/>
			<point x="1" y="560"/>
			<point x="1" y="560" type="curve" smooth="yes"/>
			<point x="1" y="440" type="line"/>
			<point x="1" y="440"/>
			<point x="1" y="440"/>
			<point x="1" y="440" type="curve" smooth="yes"/>
			<point x="0" y="440" type="line"/>
			<point x="0" y="440"/>
			<point x="0" y="440"/>
			<point x="0" y="440" type="curve" smooth="yes"/>
			<point x="0" y="560" type="line"/>
		</contour>
	</outline>
</glyph>
<glyph name="_14.clip.center" format="2">
	<advance width="1"/>
	<outline>
		<contour>
			<point x="0" y="570"/>
			<point x="0" y="570"/>
			<point x="0" y="570" type="curve" smooth="yes"/>
			<point x="1" y="570" type="line"/>
			<point x="1" y="570"/>
			<point x="1" y="570"/>
			<point x="1" y="570" type="curve" smooth="yes"/>
			<point x="1" y="430" type="line"/>
			<point x="1" y="430"/>
			<point x="1" y="430"/>
			<point x="1" y="430" type="curve" smooth="yes"/>
			<point x="0" y="430" type="line"/>
			<point x="0" y="430"/>
			<point x="0" y="430"/>
			<point x="0" y="430" type="curve" smooth="yes"/>
			<point x="0" y="570" type="line"/>
		</contour>
	</outline>
</glyph>
<glyph name="_18.clip.center" format="2">
  <advance width="1"/>
  
  <outline>
    <contour>
        <point x="0" y="590"/>

        <point x="0" y="590"/>
        <point x="0" y="590" type="curve" smooth="yes"/>
        <point x="1" y="590" type="line"/>
        <point x="1" y="590"/>

        <point x="1" y="590"/>
        <point x="1" y="590" type="curve" smooth="yes"/>
        <point x="1" y="410" type="line"/>
        <point x="1" y="410"/>

        <point x="1" y="410"/>
        <point x="1" y="410" type="curve" smooth="yes"/>
        <point x="0" y="410" type="line"/>
        <point x="0" y="410"/>

        <point x="0" y="410"/>
        <point x="0" y="410" type="curve" smooth="yes"/>
        <point x="0" y="590" type="line"/>
    </contour>
  </outline>
</glyph>
<glyph name="_25.clip.center" format="2">
  <advance width="1"/>
  
  <outline>
    <contour>
        <point x="0" y="625"/>

        <point x="0" y="625"/>
        <point x="0" y="625" type="curve" smooth="yes"/>
        <point x="1" y="625" type="line"/>
        <point x="1" y="625"/>

        <point x="1" y="625"/>
        <point x="1" y="625" type="curve" smooth="yes"/>
        <point x="1" y="375" type="line"/>
        <point x="1" y="375"/>

        <point x="1" y="375"/>
        <point x="1" y="375" type="curve" smooth="yes"/>
        <point x="0" y="375" type="line"/>
        <point x="0" y="375"/>

        <point x="0" y="375"/>
        <point x="0" y="375" type="curve" smooth="yes"/>
        <point x="0" y="625" type="line"/>
    </contour>
  </outline>
</glyph>
<glyph name="_35.clip" format="2">
	<advance width="1"/>
	<outline>
		<contour>
			<point x="0" y="350"/>
			<point x="0" y="350"/>
			<point x="0" y="350" type="curve" smooth="yes"/>
			<point x="1" y="350" type="line"/>
			<point x="1" y="350"/>
			<point x="1" y="350"/>
			<point x="1" y="350" type="curve" smooth="yes"/>
			<point x="1" y="0" type="line"/>
			<point x="1" y="0"/>
			<point x="1" y="0"/>
			<point x="1" y="0" type="curve" smooth="yes"/>
			<point x="0" y="0" type="line"/>
			<point x="0" y="0"/>
			<point x="0" y="0"/>
			<point x="0" y="0" type="curve" smooth="yes"/>
			<point x="0" y="350" type="line"/>
		</contour>
	</outline>
</glyph>
<glyph name="_5.clip.center" format="2">
	<advance width="1"/>
	<outline>
		<contour>
			<point x="0" y="525"/>
			<point x="0" y="525"/>
			<point x="0" y="525" type="curve" smooth="yes"/>
			<point x="1" y="525" type="line"/>
			<point x="1" y="525"/>
			<point x="1" y="525"/>
			<point x="1" y="525" type="curve" smooth="yes"/>
			<point x="1" y="475" type="line"/>
			<point x="1" y="475"/>
			<point x="1" y="475"/>
			<point x="1" y="475" type="curve" smooth="yes"/>
			<point x="0" y="475" type="line"/>
			<point x="0" y="475"/>
			<point x="0" y="475"/>
			<point x="0" y="475" type="curve" smooth="yes"/>
			<point x="0" y="525" type="line"/>
		</contour>
	</outline>
</glyph>
